<?xml version="1.0" standalone="no"?>
<!DOCTYPE svg PUBLIC "-//W3C//DTD SVG 20010904//EN"
 "http://www.w3.org/TR/2001/REC-SVG-20010904/DTD/svg10.dtd">
<svg version="1.0" xmlns="http://www.w3.org/2000/svg"
 width="512.000000pt" height="512.000000pt" viewBox="0 0 512.000000 512.000000"
 preserveAspectRatio="xMidYMid meet">

<g transform="translate(0.000000,512.000000) scale(0.100000,-0.100000)"
fill="#000000" stroke="none">
<path d="M1535 4780 c-857 -286 -1006 -339 -985 -347 14 -6 206 -70 428 -144
l402 -134 0 -632 0 -633 39 -24 c104 -66 303 -128 527 -165 204 -34 350 -44
619 -44 380 0 668 36 913 114 89 29 220 87 250 111 9 8 12 149 12 642 l1 631
212 69 c117 38 218 71 225 73 9 4 12 -70 12 -349 l0 -354 -33 -12 c-51 -18
-113 -77 -141 -134 -26 -51 -26 -55 -26 -275 l0 -223 273 2 272 3 0 215 c0
158 -4 225 -14 254 -18 51 -90 128 -141 151 l-40 18 0 381 0 381 125 39 c69
22 125 42 125 45 0 10 -769 263 -779 257 -5 -4 -12 -20 -16 -37 -4 -17 -12
-28 -18 -26 -7 2 -38 13 -70 23 -62 19 -61 17 -45 83 2 10 -164 69 -547 197
-302 101 -554 184 -560 183 -5 0 -464 -153 -1020 -339z m1575 -1640 l0 -80
-75 0 -75 0 0 80 0 80 75 0 75 0 0 -80z"/>
<path d="M918 2434 c-182 -44 -340 -190 -405 -374 -21 -61 -26 -94 -26 -175
-1 -152 44 -279 137 -382 l46 -51 -66 -11 c-149 -26 -280 -96 -389 -206 -258
-261 -284 -658 -60 -953 84 -112 216 -202 370 -254 l70 -23 2263 -3 2262 -2 0
225 0 225 -80 0 -80 0 0 275 0 275 80 0 80 0 0 225 0 225 -240 0 -240 0 0 150
0 150 -80 0 -80 0 0 125 0 125 80 0 80 0 0 225 0 225 -600 0 -600 0 0 -75 0
-75 520 0 520 0 0 -70 0 -70 -1550 0 -1550 0 0 -80 0 -80 1475 0 1475 0 0
-125 0 -125 -1646 0 c-1482 0 -1649 2 -1679 16 -88 41 -95 164 -13 214 27 17
50 20 136 20 l102 0 0 81 0 82 -118 -5 c-94 -5 -128 -11 -166 -29 -131 -61
-192 -196 -152 -334 14 -45 29 -69 69 -110 94 -93 -84 -85 1884 -85 l1733 0 0
-75 0 -75 -1290 0 -1290 0 0 -75 0 -75 1535 0 1535 0 0 -75 0 -75 -2154 0
c-2056 0 -2157 -1 -2213 -18 -154 -48 -267 -181 -296 -345 -35 -205 107 -417
317 -473 42 -11 358 -14 1849 -14 l1797 0 0 75 0 75 -1807 2 -1808 3 -55 30
c-169 93 -196 319 -53 444 87 77 -101 71 2200 71 l2063 0 0 -125 0 -125 -1665
0 -1665 0 0 -75 0 -75 1665 0 1665 0 0 -75 0 -75 -200 0 -200 0 0 -75 0 -75
280 0 280 0 0 -75 0 -75 -2147 0 c-1804 0 -2159 3 -2214 14 -203 43 -374 206
-435 412 -23 79 -23 220 0 299 56 188 197 337 375 398 65 21 77 22 634 25
l567 3 0 74 0 75 -337 0 c-186 0 -369 5 -408 10 -147 22 -267 109 -328 238
-40 86 -50 218 -22 303 34 104 115 203 204 248 101 52 70 51 1293 51 l1138 0
0 75 0 75 -1157 -1 c-951 -1 -1168 -3 -1215 -15z"/>
<path d="M1180 675 l0 -75 75 0 75 0 0 75 0 75 -75 0 -75 0 0 -75z"/>
</g>
</svg>
